<?xml version="1.0" encoding="utf-8"?>
<!-- Generator: Adobe Illustrator 15.0.0, SVG Export Plug-In . SVG Version: 6.00 Build 0)  -->
<!DOCTYPE svg PUBLIC "-//W3C//DTD SVG 1.1//EN" "http://www.w3.org/Graphics/SVG/1.1/DTD/svg11.dtd">
<svg version="1.1" id="Layer_1" xmlns="http://www.w3.org/2000/svg" xmlns:xlink="http://www.w3.org/1999/xlink" x="0px" y="0px"
	 width="100px" height="75px" viewBox="0 0 100 75" enable-background="new 0 0 100 75" xml:space="preserve">
<path fill="#FFFFFF" d="M52.477,47.502l-10.112-4.225l-4.268-5.976l1.343-0.669c2.856-1.287,4.56-4.137,4.56-7.258V11.905
	c0-0.054,0.389-0.129,0.491-0.24c0.259-0.277,0.4-0.675,0.265-1.029C44.716,10.53,40.604,0,29.178,0
	c-8.683,0-15.743,6.012-15.743,10.989c0,0.786,0.565,1.511,0.565,2.147v16.238c0,3.122,1.93,5.971,4.787,7.258l1.395,0.609
	l-4.327,6.141l-9.632,4.119C2.343,49.133,0,52.9,0,57.094v16.912C0,74.557,0.449,75,1,75s1-0.443,1-0.994V57.094
	c0-3.395,1.873-6.441,5.012-7.762l9.095-3.857l12.237,26.293c0.043,0.092,0.079,0.174,0.144,0.246c0.004,0.004,0,0.006,0.003,0.012
	c0.078,0.082,0.166,0.146,0.266,0.197c0.014,0.008,0.02,0.021,0.034,0.027c0.016,0.008,0.031-0.168,0.046-0.16
	c0.118,0.047,0.24-0.09,0.369-0.09c0.001,0,0.001,0,0.002,0h0h0c0,0,0.001,0,0.002,0c0.128,0,0.252,0.137,0.37,0.09
	c0.016-0.008,0.033,0.082,0.048,0.074c0.015-0.006,0.023,0.025,0.037,0.018c0.1-0.053,0.192-0.097,0.271-0.179
	c0.004-0.006,0.009,0.005,0.013-0.001c0.065-0.07,0.121-0.147,0.164-0.239l12.274-26.29l9.308,3.859
	C54.836,50.65,57,53.699,57,57.094v16.912C57,74.557,57.449,75,58,75s1-0.443,1-0.994V57.094C59,52.9,56.355,49.133,52.477,47.502z
	 M29.209,68.992l-1.508-3.23l1.335-7.072l1.435,7.598L29.209,68.992z M29.036,51.721l-3.422-4.25l3.508-5.865l3.435,5.74
	L29.036,51.721z M23.779,48.369l4.191,5.207l-1.715,9.088l-7.721-16.537L23.779,48.369z M30.102,53.576l4.107-5.102
	c0.009-0.004,0.019-0.002,0.027-0.006l5.688-2.434l-8.007,17.154L30.102,53.576z M40.192,43.756l-5.939,2.543l-3.55-5.936
	c0.616-0.117,1.222-0.297,1.803-0.559l3.705-1.67L40.192,43.756z M42,15.645c0-0.238-1.249-0.676-1.887-1.481
	c-0.882-1.114-1.083-2.32-1.093-2.896C40.239,11.333,41,11.489,42,11.635V15.645z M29.209,1.988c7.386,0,11.268,4.868,12.859,7.586
	c-2.841-0.478-8.054-0.833-12.522,1.725c-4.889,2.797-10.319,3.022-12.744,1.625c-0.855-0.493-1.271-1.125-1.271-1.934
	C15.531,7.448,21.404,1.988,29.209,1.988z M16,29.374V14.812c1,0.617,2.893,0.933,4.638,0.933c3.102,0,6.754-0.944,9.861-2.722
	c2.142-1.226,4.551-1.677,6.695-1.767c0.008,0.928,0.106,2.58,1.341,4.139C39.708,16.876,41,17.488,42,17.741v11.633
	c0,2.343-1.259,4.481-3.402,5.447l-2.238,1.037c-0.17,0.015-0.308,0.056-0.458,0.162c-0.04,0.028-0.046,0.07-0.082,0.103
	l-4.145,1.871c-1.572,0.709-3.372,0.709-4.944,0l-7.122-3.171C17.466,33.855,16,31.717,16,29.374z M22.077,38.076l3.835,1.729
	c0.532,0.24,1.083,0.416,1.644,0.533l-3.563,5.961l-5.939-2.543L22.077,38.076z"/>
<path fill="#FFFFFF" d="M52,63.994C52,63.445,51.553,63,51.002,63H38.998C38.447,63,38,63.445,38,63.994v7.012
	C38,71.555,38.447,72,38.998,72h12.004C51.553,72,52,71.555,52,71.006V63.994z M50,69H40v-4h10V69z"/>
<path fill="#FFFFFF" d="M45,60.445c-0.551,0-1,0.443-1,0.992V62h-0.858c-0.551,0-0.998,0.449-0.998,1c0,0.549,0.447,1,0.998,1h4.274
	c0.551,0,0.998-0.451,0.998-1c0-0.551-0.447-1-0.998-1H46v-0.562C46,60.889,45.551,60.445,45,60.445z"/>
<path fill="#FFFFFF" d="M94.66,48c-0.001,0-0.002,0-0.003,0c-0.002,0-0.003-0.148-0.005-0.15l-1.244-0.572l0,0L92,46.633V22.115
	c0-8.328-6.638-15.104-15-15.104c-8.363,0-15,6.776-15,15.104v24.518L59.232,48h-0.075l-0.045-0.145
	c-0.398,0.166-0.808,0.295-1.178,0.527c-0.469,0.289-0.62,0.867-0.329,1.332c0.189,0.303,0.51,0.45,0.843,0.45
	c0.181,0,0.36-0.058,0.523-0.159c0.283-0.176,0.579-0.335,0.873-0.458l0.382-0.159l6.212,8.254C68.014,59.729,70.518,61,73.138,61
	h7.461c2.619,0,5.124-1.273,6.699-3.359l6.213-8.24l0.533,0.15C96.355,50.527,98,52.764,98,55.264v12.945
	c0,0.549,0.449,0.994,1,0.994c0.552,0,1-0.445,1-0.994V55.264C100,51.959,97.717,49,94.66,48z M64,22.115
	c0-7.233,5.737-13.116,13-13.116c7.262,0,13,5.883,13,13.116v23.702l-6-2.561v-2.945l1.18-0.492C87.447,38.795,89,36.532,89,34.05
	V21.424c0-0.013-0.201-0.023-0.201-0.036c0-0.011-0.092-0.021-0.093-0.032c-0.004-0.053-0.077-0.096-0.088-0.146
	c-0.017-0.071-0.052-0.142-0.082-0.206c-0.022-0.048-0.07-0.086-0.101-0.13c-0.044-0.063-0.09-0.127-0.146-0.178
	c-0.034-0.031-0.077-0.05-0.115-0.076c-0.067-0.046-0.134-0.093-0.213-0.122c-0.051-0.019-0.106-0.021-0.16-0.032
	c-0.062-0.012-0.121-0.038-0.187-0.038c-0.013,0-0.022,0.007-0.035,0.007c-0.012,0-0.021-0.005-0.033-0.004
	c-0.774,0.055-2.978-0.221-4.236-0.914c-1.184-0.652-1.987-1.718-2.316-2.433c-0.229-0.499-0.818-0.717-1.323-0.49
	c-0.501,0.229-0.722,0.818-0.491,1.318c0.477,1.036,1.751,2.458,3.358,3.344C83.807,21.957,85,22.287,87,22.387V34.05
	c0,1.702-1.197,3.379-2.754,4.081L82.398,39c-0.002,0-0.003,0-0.004,0l-3.729,1.557c-1.143,0.516-2.453,0.453-3.594-0.061
	l-5.448-2.459C68.066,37.336,67,35.752,67,34.05V22.388c2-0.088,4.404-0.433,6.617-1.77c3.145-1.9,4.564-4.705,5.112-6.208
	c0.188-0.516-0.063-1.086-0.582-1.274c-0.516-0.187-1.083,0.079-1.271,0.595c-0.459,1.257-1.616,3.603-4.237,5.187
	c-2.07,1.25-5.162,1.537-6.501,1.511c-0.003,0-0.005,0.002-0.008,0.002s-0.005-0.002-0.008-0.002c-0.393,0-0.724,0.231-0.887,0.559
	c-0.007,0.013-0.019,0.023-0.024,0.036c-0.032,0.073-0.04,0.154-0.054,0.234c-0.009,0.05-0.032,0.095-0.033,0.147
	c0,0.003-0.061,0.006-0.061,0.009c0,0.003-0.063,0.006-0.063,0.009V34.05c0,2.481,1.552,4.745,3.822,5.768L70,40.311v2.945l-6,2.561
	V22.115z M85.703,56.441C84.502,58.029,82.594,59,80.599,59h-2.582c0.206-1,0.47-1.145,0.838-1.627
	c0.85-1.115,1.916-1.697,2.66-1.979c0.515-0.197,0.773-0.779,0.576-1.291c-0.196-0.512-0.771-0.771-1.288-0.575
	c-0.987,0.375-2.402,1.132-3.538,2.62c-0.143,0.186-0.272,0.378-0.396,0.577c-0.125-0.199-0.255-0.392-0.397-0.579
	c-1.134-1.486-2.549-2.244-3.537-2.621c-0.517-0.195-1.092,0.061-1.289,0.572c-0.197,0.514,0.062,1.088,0.577,1.285
	c0.744,0.281,1.811,0.877,2.66,1.99C75.252,57.855,75.515,58,75.72,59h-2.582c-1.996,0-3.904-0.971-5.104-2.559l-5.899-7.824
	l9.197-3.771c0.001-0.002,0.002-0.005,0.003-0.005c0.122-0.051,0.231-0.124,0.323-0.216c0.07-0.072,0.119-0.159,0.165-0.247
	c0.014-0.025,0.062-0.044,0.074-0.069C71.947,44.188,72,44.057,72,43.924c0-0.002,0-0.002,0-0.002v-2.713l2.275,1.035
	c0.832,0.377,1.711,0.564,2.605,0.564c0.894,0,1.888-0.188,2.72-0.564L82,41.209v2.713c0,0.002,0,0.002,0,0.004
	c0,0.131-0.08,0.26-0.029,0.379c0.035,0.086,0.041,0.156,0.099,0.227c0.022,0.029,0.009,0.064,0.034,0.09
	c0.093,0.094,0.189,0.166,0.312,0.217c0.001,0-0.005,0.002-0.004,0.002l9.193,3.777L85.703,56.441z"/>
<path fill="#FFFFFF" d="M95,65.677C95,65.303,94.695,65,94.32,65H85.68C85.305,65,85,65.303,85,65.677v4.646
	C85,70.697,85.305,71,85.68,71h8.641c0.375,0,0.68-0.303,0.68-0.677V65.677z M93,69h-6v-3h6V69z"/>
<path fill="#FFFFFF" d="M90,63.293c-0.375,0-1,0.302-1,0.675V64h-0.264c-0.375,0-0.68,0.625-0.68,1c0,0.373,0.305,1,0.68,1h2.907
	c0.374,0,0.679-0.627,0.679-1c0-0.375-0.305-1-0.679-1H91v-0.032C91,63.595,90.375,63.293,90,63.293z"/>
</svg>
