<?xml version="1.0" encoding="utf-8"?>
<!-- Generator: Adobe Illustrator 15.0.0, SVG Export Plug-In . SVG Version: 6.00 Build 0)  -->
<!DOCTYPE svg PUBLIC "-//W3C//DTD SVG 1.1//EN" "http://www.w3.org/Graphics/SVG/1.1/DTD/svg11.dtd">
<svg version="1.1" id="Layer_1" xmlns="http://www.w3.org/2000/svg" xmlns:xlink="http://www.w3.org/1999/xlink" x="0px" y="0px"
	 width="76.214px" height="75px" viewBox="0 0 76.214 75" enable-background="new 0 0 76.214 75" xml:space="preserve">
<g>
	<path fill="#FFFFFF" d="M11.623,15h7.027c2.261,0,4.064-1.538,4.064-3.798V0.919C22.714,0.411,22.338,0,21.831,0H11.33
		c-2.14,0-3.615,1.74-3.615,3.88v7.246C7.714,13.428,9.321,15,11.623,15z M18.65,13h-7.027c-1.288,0-1.909-0.586-1.909-1.874v-0.692
		c0-0.002-0.096,0.007-0.036-0.007c0.248-0.064,0.513,0.009,0.872,0.076c0.258,0.048,0.54,0.111,0.892,0.111
		c0.649,0,1.33-0.215,1.707-1.134c0.381-0.926,0.19-1.725,0.06-2.309c-0.057-0.254-0.126-0.542-0.123-0.595
		c0.323-0.225,2.006-0.208,4.265-0.183c0.969,0.01,2.363,0.021,3.363,0.022v4.786C20.714,12.448,19.896,13,18.65,13z M11.33,2h9.385
		v2.576c-1,0-2.384-0.013-3.348-0.022c-4.211-0.045-5.433-0.057-5.99,1.255c-0.273,0.643-0.111,1.263-0.001,1.761
		c0.113,0.508,0.187,0.838,0.084,1.206c-0.107,0.033-0.238-0.036-0.469-0.081C10.56,8.615,9.714,8.528,9.714,8.602V3.88
		C9.714,2.755,10.204,2,11.33,2z"/>
	<path fill="#FFFFFF" d="M33.865,70.759c-0.001-0.084-0.15-0.167-0.15-0.247c0-0.004,0-0.007,0-0.011
		c0-0.042,0.083-0.072,0.065-0.11c-0.031-0.068,0.004-0.137-0.043-0.196c-0.044-0.054-0.07-0.091-0.124-0.134
		c-0.038-0.029-0.049-0.068-0.092-0.093l-5.309-3.07l-5.497-19.575V34.2l5.567,4.871c0.173,0.147,0.311,0.221,0.523,0.221
		c0.159,0,0.275-0.056,0.417-0.138c0.436,1.618,2.164,2.834,4.254,2.834c2.416,0,4.373-1.622,4.373-3.616s-1.971-3.615-4.387-3.615
		c-0.376,0-0.737,0.051-1.085,0.125L19.897,18.016c-0.804-1.212-2.032-2.039-3.458-2.328c-0.796-0.161-1.628-0.126-2.394,0.06
		c-3.553,0.5-6.332,3.552-6.332,7.24v24.333L2,67.219l-1.955,5.095c-0.015,0.038-0.002,0.077-0.012,0.116
		C0.023,72.472,0.005,72.507,0,72.551c-0.002,0.021,0.009,0.041,0.008,0.062c-0.002,0.064,0.008,0.124,0.019,0.186
		c0.01,0.058,0.019,0.113,0.039,0.167c0.021,0.055,0.051,0.103,0.082,0.152c0.031,0.051,0.06,0.1,0.1,0.144
		c0.039,0.042,0.084,0.074,0.131,0.109c0.05,0.037,0.099,0.073,0.157,0.1c0.019,0.01,0.032,0.026,0.053,0.034
		c0.044,0.018,0.09,0.016,0.136,0.025c0.035,0.008,0.064,0.027,0.101,0.031l11.642,1.213c0.032,0.004,0.064,0.006,0.096,0.006
		c0.104,0,0.208-0.021,0.308-0.058c0.037-0.014,0.069-0.036,0.104-0.054c0.045-0.023,0.092-0.038,0.134-0.069
		c0.011-0.008,0.016-0.021,0.027-0.029c0.058-0.047,0.103-0.104,0.148-0.165c0.026-0.033,0.057-0.062,0.078-0.1
		c0.032-0.057,0.046-0.122,0.066-0.186c0.014-0.049,0.036-0.094,0.042-0.144c0.001-0.007,0.005-0.013,0.006-0.021
		c0.005-0.048-0.011-0.091-0.013-0.138c-0.003-0.067-0.001-0.133-0.019-0.198c-0.019-0.068-0.055-0.127-0.088-0.188
		c-0.021-0.039-0.029-0.082-0.056-0.119l-2.633-3.561l4.433-8.323l4.68,8.788l1.636,4.197c0.016,0.042,0.044,0.075,0.065,0.113
		c0.021,0.037,0.038,0.076,0.063,0.109c0.035,0.045,0.077,0.081,0.118,0.119c0.028,0.025,0.052,0.054,0.083,0.075
		c0.051,0.036,0.107,0.06,0.164,0.084c0.029,0.013,0.055,0.032,0.085,0.04C22.081,74.984,22.172,75,22.265,75
		c0.002,0,0.004,0,0.007,0c0,0,0,0,0,0l0,0c0,0,0.001,0,0.002,0c0.088-0.001,0.178-0.013,0.267-0.04l10.814-3.311
		c0.013-0.004,0.021-0.014,0.034-0.019c0.088-0.03,0.17-0.076,0.246-0.133c0.021-0.016,0.042-0.029,0.061-0.047
		c0.074-0.065,0.141-0.14,0.191-0.23c0.002-0.003,0.001-0.007,0.003-0.01c0.042-0.077,0.062-0.163,0.081-0.249
		c0.007-0.031-0.038-0.062-0.035-0.093C33.94,70.833,33.865,70.795,33.865,70.759z M22.819,72.951l-0.999-2.563l5.383-1.869
		l3.56,2.001L22.819,72.951z M10.23,48h10.577l5.359,18.746l-5.109,1.68L10.23,48z M36,38.372c0,0.964-1.164,1.777-2.542,1.777
		c-1.379,0-2.543-0.813-2.543-1.777c0-0.963,1.164-1.776,2.543-1.776C34.835,36.596,36,37.409,36,38.372z M18.39,19.071
		l12.145,16.417l-1.823,1.659L12.968,23.728c-0.235-0.209-0.442-0.448-0.616-0.71c-0.533-0.803-0.72-1.765-0.529-2.708
		c0.191-0.945,0.739-1.758,1.542-2.29c0.302-0.2,0.626-0.351,0.963-0.452c0.252-0.036,0.508-0.061,0.77-0.061
		c0.131,0,0.254-0.029,0.367-0.078c0.202,0.006,0.406,0.021,0.608,0.061C17.018,17.682,17.831,18.23,18.39,19.071z M9.975,21.191
		c0.029,1.004,0.299,1.984,0.868,2.842c0.26,0.395,0.628,0.753,0.997,1.082l8.875,7.518V39h-5.303c-0.508,0-0.919,0.491-0.919,1
		c0,0.508,0.412,1,0.919,1h5.303v6h-11V22.989C9.714,22.358,9.779,21.755,9.975,21.191z M9.011,70.607l1.569,2.121l-8.37-0.872
		l1.231-3.183L9.011,70.607z M9.14,68.706l-5.109-1.773l4.922-17.044l5.104,9.584L9.14,68.706z"/>
	<path fill="#FFFFFF" d="M62.045,69.383c-2.628,2.437-6.048,3.778-9.634,3.778c-7.813,0-14.171-6.357-14.171-14.171
		c0-5.482,3.21-10.523,8.179-12.846c0.042-0.02,0.07-0.055,0.108-0.08c0.058-0.038,0.117-0.072,0.165-0.122
		c0.043-0.046,0.07-0.101,0.104-0.153c0.029-0.047,0.064-0.089,0.085-0.142c0.027-0.069-0.084-0.144-0.073-0.218
		c0.005-0.04-0.094-0.076-0.094-0.118v-0.033c0-0.001,0-0.001,0-0.002v-6.904c0-0.509-0.177-1.372-0.685-1.372h-6.681
		c-0.508,0-0.92,0.491-0.92,1c0,0.508,0.412,1,0.92,1h5.365v5.75c-5,2.728-8.51,8.247-8.51,14.24c0,8.828,7.281,16.01,16.109,16.01
		c4.051,0,7.965-1.516,10.933-4.269c0.373-0.346,0.42-0.928,0.075-1.3C62.975,69.059,62.417,69.036,62.045,69.383z"/>
	<path fill="#FFFFFF" d="M52.151,31.579c3.378,0,6.126-2.748,6.126-6.126c0-2.515,0.057-5.125,0.057-5.129
		c0.011-0.507-0.392-0.928-0.898-0.939c0,0-2.595-0.057-5.284-0.057c-3.378,0-6.126,2.748-6.126,6.125
		C46.025,28.831,48.773,31.579,52.151,31.579z M52.151,21.167c1.69,0,3.342-0.223,4.327-0.207C56.472,21.314,56.464,22,56.458,22
		h-5.567c-0.509,0-0.92,0.491-0.92,1c0,0.508,0.411,1,0.92,1h5.55c-0.003,1-0.004,0.912-0.004,1.287c0,2.363-1.923,4.37-4.286,4.37
		c-2.364,0-4.287-1.881-4.287-4.245S49.787,21.167,52.151,21.167z"/>
	<path fill="#FFFFFF" d="M75.649,69.095l-0.304-0.977c-0.61-1.558-2.631-2.573-3.631-2.651V53.933c0-2.259-1.996-3.933-4.255-3.933
		h-9.745v-1h10.802c0.509,0,0.92-0.371,0.92-0.879c0-2.846-2.315-5.121-5.16-5.121h-6.562v-6.181c0-2.521-2.022-4.819-4.543-4.819
		h-4.294c-0.509,0-1.163,0.66-1.163,1.169v20.345c0,2.298,2.113,4.486,4.411,4.486h12.589v13.563c0,0.28,0.079,0.545,0.298,0.719
		c0.164,0.131,0.343,0.2,0.549,0.2c0.069,0,0.126-0.008,0.194-0.023l9.249-2.134c0.261-0.06,0.479-0.23,0.604-0.467
		S75.746,69.343,75.649,69.095z M67.467,47h-2.753v-2.15C66.714,45.165,67.153,46,67.467,47z M53.171,34
		c1.507,0,2.543,1.313,2.543,2.819v6.971c0,0.509,0.6,1.21,1.108,1.21h6.892v2h-6.892h-7.108V34H53.171z M52.125,56
		c-1.284,0-2.411-1.202-2.411-2.486V49h6v1.755c0,0.508,0.6,1.245,1.108,1.245h10.637c1.244,0,2.255,0.688,2.255,1.933V65.74
		l-3,0.795v-9.773c0-0.508-0.67-0.762-1.178-0.762H52.125z M66.714,70.407v-1.979L70.971,67h-0.063c1.114,0,2.375,0.529,2.801,1.593
		L66.714,70.407z"/>
</g>
</svg>
